<svg width="144" height="69" viewBox="0 0 144 69" fill="none" xmlns="http://www.w3.org/2000/svg">
    <path d="M0.599857 16.5L25.825 29.0083L18.1518 32.8445L0.599857 16.5Z" fill="#1C3A41"/>
    <path d="M74.3406 8.56667L28.8948 42.9138L20.6648 35.2761L74.3406 8.56667Z" fill="#07A0C3"/>
    <path d="M94.5753 67.1362C94.0297 67.5026 93.3361 67.8451 92.4944 68.1637C91.6682 68.4664 90.7642 68.6177 89.7822 68.6177C88.052 68.6177 86.5245 68.2274 85.1995 67.4468C83.8902 66.6662 82.8771 65.6148 82.16 64.2925C81.4586 62.9702 81.1079 61.5126 81.1079 59.9195C81.1079 58.2149 81.4664 56.6855 82.1834 55.3314C82.9004 53.9614 83.8902 52.894 85.1528 52.1293C86.4309 51.3487 87.8728 50.9584 89.4782 50.9584C90.4291 50.9584 91.3175 51.0858 92.1436 51.3407C92.9698 51.5956 93.7102 51.9302 94.3648 52.3444L93.453 54.5189C92.1592 53.6268 90.8577 53.1807 89.5484 53.1807C88.4573 53.1807 87.4441 53.4755 86.5089 54.0649C85.5892 54.6544 84.8488 55.4589 84.2877 56.4784C83.7421 57.4821 83.4694 58.5893 83.4694 59.8C83.4694 61.0426 83.7188 62.1657 84.2176 63.1694C84.7319 64.173 85.4567 64.9616 86.392 65.5351C87.3428 66.0927 88.4339 66.3715 89.6653 66.3715C91.1772 66.3715 92.4944 65.9334 93.6166 65.0572L94.5753 67.1362Z" fill="#1C3A41"/>
    <path d="M100.6 51.1496V66.1803H109.204V68.4266H98.3316V51.1496H100.6Z" fill="#1C3A41"/>
    <path d="M121.756 63.8863H115.256L113.455 68.4266H111.211L118.599 50.4327H118.74L126.128 68.4266H123.509L121.756 63.8863ZM120.984 61.879L118.576 55.5704L116.074 61.879H120.984Z" fill="#1C3A41"/>
    <path d="M144 51.1496V69.0001H143.93L131.515 56.12L131.561 68.4266H129.27V50.6239H129.387L141.779 63.6473L141.732 51.1496H144Z" fill="#1C3A41"/>
    <path d="M16.7299 51.1495V68.9999H16.6598L4.24456 56.1199L4.29132 68.4264H2V50.6237H2.1169L14.5087 63.6472L14.462 51.1495H16.7299Z" fill="#07A0C3"/>
    <path d="M20.5384 59.7999C20.5384 58.2227 20.9281 56.7571 21.7075 55.403C22.4868 54.0489 23.5312 52.9735 24.8405 52.177C26.1654 51.3645 27.6072 50.9583 29.1659 50.9583C30.7091 50.9583 32.1431 51.3645 33.468 52.177C34.7929 52.9735 35.845 54.0489 36.6244 55.403C37.4194 56.7571 37.8168 58.2227 37.8168 59.7999C37.8168 61.393 37.4272 62.8666 36.6478 64.2207C35.8684 65.5748 34.8085 66.6502 33.468 67.4467C32.1431 68.2273 30.7091 68.6176 29.1659 68.6176C27.6072 68.6176 26.1654 68.2273 24.8405 67.4467C23.5156 66.6661 22.4634 65.6067 21.6841 64.2685C20.9203 62.9144 20.5384 61.4248 20.5384 59.7999ZM22.8765 59.8238C22.8765 61.0027 23.1571 62.0939 23.7182 63.0976C24.2793 64.1012 25.0431 64.8978 26.0095 65.4872C26.9915 66.0766 28.0592 66.3714 29.2127 66.3714C30.3661 66.3714 31.4183 66.0846 32.3691 65.5111C33.3355 64.9217 34.0915 64.1251 34.637 63.1215C35.1982 62.1019 35.4787 60.9947 35.4787 59.7999C35.4787 58.6051 35.1982 57.4979 34.637 56.4783C34.0759 55.4587 33.3121 54.6542 32.3457 54.0648C31.3793 53.4754 30.3194 53.1806 29.1659 53.1806C28.0125 53.1806 26.9526 53.4833 25.9861 54.0887C25.0197 54.6781 24.256 55.4826 23.6948 56.5022C23.1493 57.5218 22.8765 58.629 22.8765 59.8238Z" fill="#07A0C3"/>
    <path d="M50.9433 68.4264L46.9686 62.0461C46.8439 62.0621 46.6568 62.07 46.4075 62.07H43.9057V68.4264H41.6378V51.1495H46.1503C47.3037 51.1495 48.3325 51.3566 49.2365 51.7708C50.1406 52.185 50.8498 52.7983 51.3642 53.6108C51.8786 54.4073 52.1357 55.3711 52.1357 56.5022C52.1357 57.5696 51.9019 58.5493 51.4343 59.4415C50.9823 60.3336 50.2809 61.0106 49.33 61.4726L53.5854 68.4264H50.9433ZM46.3607 59.8238C47.5765 59.8238 48.4494 59.4972 48.9793 58.844C49.5249 58.1909 49.7977 57.4421 49.7977 56.5978C49.7977 56.088 49.6808 55.5862 49.447 55.0923C49.2287 54.5985 48.8702 54.1922 48.3714 53.8736C47.8882 53.5391 47.2725 53.3718 46.5244 53.3718H43.9057V59.8238H46.3607Z" fill="#07A0C3"/>
    <path d="M57.0727 51.1495H61.7021C63.8064 51.1495 65.5444 51.5796 66.9161 52.4399C68.3033 53.2842 69.3087 54.3834 69.9322 55.7375C70.5713 57.0757 70.8908 58.4936 70.8908 59.9911C70.8908 61.6638 70.5089 63.1454 69.7451 64.4358C68.9814 65.7102 67.9604 66.6979 66.6823 67.3989C65.4041 68.0839 64.0168 68.4264 62.5205 68.4264H57.0727V51.1495ZM62.0762 66.1802C63.3232 66.1802 64.4377 65.9333 65.4197 65.4394C66.4017 64.9296 67.1655 64.1968 67.711 63.241C68.2721 62.2851 68.5527 61.1461 68.5527 59.8238C68.5527 58.4697 68.2644 57.3067 67.6876 56.3349C67.1109 55.3632 66.3393 54.6303 65.3729 54.1365C64.4221 53.6267 63.3934 53.3718 62.2867 53.3718H59.3407V66.1802H62.0762Z" fill="#07A0C3"/>
</svg>
